<?xml version="1.0" encoding="utf-8"?>
<!-- Generator: Adobe Illustrator 25.2.0, SVG Export Plug-In . SVG Version: 6.00 Build 0)  -->
<svg version="1.1" id="Слой_1" xmlns="http://www.w3.org/2000/svg" xmlns:xlink="http://www.w3.org/1999/xlink" x="0px" y="0px"
	 viewBox="0 0 1458.68 1080" style="enable-background:new 0 0 1458.68 1080;" xml:space="preserve">
<style type="text/css">
	.st0{fill:#004787;}
	.st1{fill:#0455BF;}
	.st2{fill:#FEBC00;}
	.st3{fill:#EDAA03;}
</style>
<g>
	<path class="st0" d="M1314.41,893.27c-21.39,35.41-58.4,60.18-101.55,64.85c-149.44,16.11-315.1,26.43-494.6,26.06
		c-171.75-0.31-330.66-10.33-474.75-25.7c-63.32-6.82-113.78-56.25-120.91-119.56c-11.07-98.85-17.83-209-16.41-328.69
		c1.11-96.08,7.32-185.64,16.54-267.77c3.32-29.57,16.11-56.12,35.29-76.72c-9.65,16.11-15.98,34.36-18.2,53.97
		c-9.22,82.13-15.43,171.69-16.54,267.77c-1.35,119.69,5.41,229.84,16.47,328.69c7.07,63.32,57.6,112.74,120.85,119.56
		c144.09,15.37,303.06,25.45,474.81,25.76c179.44,0.31,345.16-10.02,494.6-26.13C1263.21,931.81,1292.77,916.32,1314.41,893.27z"/>
	<path class="st1" d="M1352.59,519.76c1.11,118.52-7.19,226.4-19.92,321.37c-2.52,18.93-8.91,36.58-18.26,52.13
		c-21.64,23.05-51.21,38.54-84.4,42.11c-149.44,16.11-315.17,26.43-494.6,26.13c-171.75-0.31-330.72-10.39-474.81-25.76
		c-63.25-6.82-113.78-56.25-120.85-119.56c-11.06-98.85-17.83-209-16.47-328.69c1.11-96.08,7.32-185.64,16.54-267.77
		c2.21-19.61,8.54-37.87,18.2-53.97c0.06-0.06,0.06-0.12,0.06-0.12c21.7-23.17,51.33-38.79,84.65-42.54
		c140.22-15.86,295.31-26.37,463.01-27.23c185.28-0.86,355.49,10.27,507.88,27.6c61.78,7.07,110.77,55.32,119.01,116.98
		C1343.86,324.28,1351.6,417.9,1352.59,519.76z"/>
	<path class="st2" d="M660.54,658.32c-17.92,0-32.45-14.53-32.45-32.45V398.72c0-17.92,14.53-32.45,32.46-32.44
		c6.38,0,12.62,1.88,17.94,5.41l195.38,129.8c14.92,9.92,18.98,30.06,9.06,44.99c-3.15,4.73-7.48,8.55-12.56,11.09l-195.35,97.35
		C670.51,657.15,665.56,658.32,660.54,658.32z"/>
	<path class="st3" d="M873.87,501.49l-9.18-6.1l-124.77,62.34c-4.51,2.18-9.46,3.3-14.47,3.25c-17.92,0-32.45-14.53-32.45-32.45
		v-147.2l-14.51-9.74c-14.93-9.91-35.07-5.84-44.98,9.09c-3.55,5.34-5.43,11.62-5.41,18.04v227.15
		c-0.09,17.92,14.37,32.52,32.29,32.61c5.08,0.03,10.09-1.14,14.63-3.41l195.35-97.35c16.04-7.99,22.58-27.47,14.59-43.51
		c-2.53-5.09-6.35-9.42-11.09-12.56V501.49z"/>
</g>
</svg>
